<svg width="1440" height="800" viewBox="0 0 1440 800" fill="none" xmlns="http://www.w3.org/2000/svg">
  <g opacity="0.5">
    <circle cx="1296" cy="159" r="4" fill="#6366F1" fill-opacity="0.5" />
    <circle cx="1246" cy="359" r="4" fill="#6366F1" fill-opacity="0.5" />
    <circle cx="1026" cy="59" r="4" fill="#6366F1" fill-opacity="0.5" />
    <circle cx="926" cy="259" r="4" fill="#6366F1" fill-opacity="0.5" />
    <circle cx="726" cy="159" r="4" fill="#6366F1" fill-opacity="0.5" />
    <circle cx="526" cy="359" r="4" fill="#6366F1" fill-opacity="0.5" />
    <circle cx="326" cy="259" r="4" fill="#6366F1" fill-opacity="0.5" />
    <circle cx="126" cy="459" r="4" fill="#6366F1" fill-opacity="0.5" />
    <circle cx="1396" cy="459" r="4" fill="#6366F1" fill-opacity="0.5" />
    <circle cx="1196" cy="559" r="4" fill="#6366F1" fill-opacity="0.5" />
    <circle cx="996" cy="459" r="4" fill="#6366F1" fill-opacity="0.5" />
    <circle cx="796" cy="659" r="4" fill="#6366F1" fill-opacity="0.5" />
    <circle cx="596" cy="559" r="4" fill="#6366F1" fill-opacity="0.5" />
    <circle cx="396" cy="759" r="4" fill="#6366F1" fill-opacity="0.5" />
    <circle cx="196" cy="659" r="4" fill="#6366F1" fill-opacity="0.5" />
  </g>
  <path d="M-279 -55.5C311.5 -180 1071.5 -8.5 1718.5 -55.5V800.5H-279V-55.5Z" fill="url(#paint0_linear_0_1)" fill-opacity="0.05" />
  <defs>
    <linearGradient id="paint0_linear_0_1" x1="720" y1="-69.4999" x2="720" y2="800.5" gradientUnits="userSpaceOnUse">
      <stop stop-color="#6366F1" />
      <stop offset="1" stop-color="#6366F1" stop-opacity="0" />
    </linearGradient>
  </defs>
</svg>