<svg width="150" height="32" viewBox="0 0 150 32" fill="none" xmlns="http://www.w3.org/2000/svg">
  <path d="M21.333 5.333H10.667C9.194 5.333 8 6.527 8 8V24C8 25.473 9.194 26.667 10.667 26.667H21.333C22.806 26.667 24 25.473 24 24V8C24 6.527 22.806 5.333 21.333 5.333Z" fill="#6366F1" />
  <path d="M18.667 10.667C19.403 10.667 20 10.07 20 9.333C20 8.597 19.403 8 18.667 8C17.93 8 17.333 8.597 17.333 9.333C17.333 10.07 17.93 10.667 18.667 10.667Z" fill="white" />
  <path d="M13.333 10.667C14.07 10.667 14.667 10.07 14.667 9.333C14.667 8.597 14.07 8 13.333 8C12.597 8 12 8.597 12 9.333C12 10.07 12.597 10.667 13.333 10.667Z" fill="white" />
  <path d="M16 18.667C17.841 18.667 19.333 17.174 19.333 15.333C19.333 13.492 17.841 12 16 12C14.159 12 12.667 13.492 12.667 15.333C12.667 17.174 14.159 18.667 16 18.667Z" fill="white" />
  <path d="M16 20C12.667 20 10.667 21.333 10.667 22.667V24H21.333V22.667C21.333 21.333 19.333 20 16 20Z" fill="white" />
  <path d="M38.58 23V7.4H42.22V19.8H49.1V23H38.58ZM58.0969 23.28C56.4436 23.28 54.9569 22.9 53.6369 22.14C52.3169 21.38 51.2836 20.3267 50.5369 18.98C49.7902 17.6333 49.4169 16.1133 49.4169 14.42C49.4169 12.7267 49.7902 11.2067 50.5369 9.86C51.2836 8.51333 52.3169 7.46 53.6369 6.7C54.9569 5.94 56.4436 5.56 58.0969 5.56C59.7502 5.56 61.2369 5.94 62.5569 6.7C63.8769 7.46 64.9102 8.51333 65.6569 9.86C66.4036 11.2067 66.7769 12.7267 66.7769 14.42C66.7769 16.1133 66.4036 17.6333 65.6569 18.98C64.9102 20.3267 63.8769 21.38 62.5569 22.14C61.2369 22.9 59.7502 23.28 58.0969 23.28ZM58.0969 20.06C59.0369 20.06 59.8902 19.8467 60.6569 19.42C61.4236 18.9933 62.0236 18.3533 62.4569 17.5C62.8902 16.6467 63.1069 15.6267 63.1069 14.42C63.1069 13.2133 62.8902 12.1933 62.4569 11.34C62.0236 10.4867 61.4236 9.84667 60.6569 9.42C59.8902 8.99333 59.0369 8.78 58.0969 8.78C57.1569 8.78 56.3036 8.99333 55.5369 9.42C54.7702 9.84667 54.1702 10.4867 53.7369 11.34C53.3036 12.1933 53.0869 13.2133 53.0869 14.42C53.0869 15.6267 53.3036 16.6467 53.7369 17.5C54.1702 18.3533 54.7702 18.9933 55.5369 19.42C56.3036 19.8467 57.1569 20.06 58.0969 20.06ZM69.1275 23V7.4H75.7675C77.301 7.4 78.621 7.71333 79.7275 8.34C80.8341 8.96667 81.6875 9.82667 82.2875 10.92C82.8875 12.0133 83.1875 13.2533 83.1875 14.64C83.1875 16.0267 82.8875 17.2667 82.2875 18.36C81.6875 19.4533 80.8341 20.3133 79.7275 20.94C78.621 21.5667 77.301 21.88 75.7675 21.88H71.6275V19.8H75.6275C76.6608 19.8 77.5208 19.5933 78.2075 19.18C78.8941 18.7667 79.4075 18.1933 79.7475 17.46C80.0875 16.7267 80.2575 15.8467 80.2575 14.82C80.2575 13.7933 80.0875 12.9133 79.7475 12.18C79.4075 11.4467 78.8941 10.8733 78.2075 10.46C77.5208 10.0467 76.6608 9.84 75.6275 9.84H72.7675V23H69.1275ZM89.3306 23V7.4H92.9706V23H89.3306ZM108.648 23V7.4H112.288V23H108.648ZM121.475 23V7.4H124.775L130.895 17.84H129.575L135.595 7.4H138.895L138.935 23H135.475V13.48L136.115 13.66L131.095 22.08H129.035L123.975 13.66L124.935 13.48V23H121.475ZM142.612 23V7.4H146.252V19.8H153.132V23H142.612Z" fill="#171717" />
</svg>