<svg xmlns="http://www.w3.org/2000/svg" viewBox="0 0 512 96" width="512" height="96">
  <path d="M0 13.632L60.48 0v84.864L0 96V13.632zm68.16 1.152L128 8.064v77.952l-59.84 10.752V14.784zm7.68 69.888V24l44.16 30.336-44.16 30.336zM139.84 40.32c0-22.912 18.304-32.256 34.816-32.256 15.872 0 24.192 8.704 28.8 17.6l-14.08 8.192c-2.816-6.08-8.32-10.112-14.72-10.112-8.32 0-17.088 5.952-17.088 16.576 0 10.624 8.768 16.576 17.088 16.576 6.4 0 11.904-3.712 14.72-9.792l14.08 7.872c-4.608 8.896-12.928 17.92-28.8 17.92-16.512 0-34.816-9.344-34.816-32.576zm93.12 31.36V9.28h17.728v62.4h-17.728zm28.8 0V9.28h48.768v15.68H279.68v15.36h27.136v15.04H279.68v16.32h-17.92zm57.28-15.68V9.28h17.728V56h29.44v15.68h-47.168zM362.88 32.128c0-22.912 18.944-24 36.8-24h5.632v16.64h-7.232c-9.28 0-17.28 1.28-17.28 7.68v40.32h-17.92V32.128zm85.248 40.768c-16.576 0-35.072-8.192-35.072-32.576 0-24.384 18.496-32.256 35.072-32.256S483.2 15.936 483.2 40.32c0 24.384-18.496 32.576-35.072 32.576zm0-16c9.536 0 17.152-4.608 17.152-16.576 0-11.968-7.616-16.576-17.152-16.576S430.976 28.352 430.976 40.32c0 11.968 7.616 16.576 17.152 16.576z"
  fill="currentColor"/>
</svg>